<svg width="257" height="292" viewBox="0 0 257 292" fill="none" xmlns="http://www.w3.org/2000/svg">
<g clip-path="url(#clip0_1781_86)">
<path d="M131.045 2.87811L254.5 74.7239V210.471L131.044 289.053L2.5 210.442V74.7527L131.045 2.87811Z" stroke="url(#paint0_linear_1781_86)" stroke-width="5"/>
<path d="M26 88.2275L130.55 30L231 88.2275V198.314L130.55 262L26 198.314V88.2275Z" fill="url(#paint1_linear_1781_86)" fill-opacity="0.95"/>
<g clip-path="url(#clip1_1781_86)">
<path fill-rule="evenodd" clip-rule="evenodd" d="M151.333 96.3113L146.059 94.125L104.405 194.689L109.68 196.875L151.333 96.3113V96.3113ZM152.972 116.958L188.095 144.501L152.857 174.042L156.728 178.249L197 144.501L156.768 112.66L152.972 116.958V116.958ZM104.576 116.958L68.905 144.501L103.172 174.042L99.2962 178.249L60 144.501L100.78 112.66L104.576 116.958V116.958Z" fill="#DF2E31"/>
</g>
</g>
<defs>
<linearGradient id="paint0_linear_1781_86" x1="0" y1="0" x2="263.128" y2="286.369" gradientUnits="userSpaceOnUse">
<stop stop-color="#DF2E31"/>
<stop offset="1" stop-color="#800C0C"/>
</linearGradient>
<linearGradient id="paint1_linear_1781_86" x1="60.9763" y1="96.9231" x2="205.701" y2="196.777" gradientUnits="userSpaceOnUse">
<stop stop-color="#DF2E31" stop-opacity="0.4"/>
<stop offset="1" stop-color="#DF2E31" stop-opacity="0.15"/>
</linearGradient>
<clipPath id="clip0_1781_86">
<rect width="257" height="292" fill="white"/>
</clipPath>
<clipPath id="clip1_1781_86">
<rect width="137" height="137" fill="white" transform="translate(60 77)"/>
</clipPath>
</defs>
</svg>
