<svg width="123" height="98" viewBox="0 0 123 98" fill="none" xmlns="http://www.w3.org/2000/svg">
<path d="M33.1523 25.0933C43.838 14.4531 61.5961 14.4531 72.2817 25.0933C81.8911 34.6637 83.3133 49.9187 75.4144 60.9246L75.203 61.2308C73.2234 63.968 69.3797 64.6187 66.6314 62.6472C63.8639 60.6758 63.2105 56.8476 65.19 54.1105L65.4014 53.8043C69.8025 47.6601 69.1106 39.2574 63.7486 33.9172C57.7139 27.907 47.8931 27.907 41.8392 33.9172L20.2758 55.4121C14.22 61.2691 14.22 71.2031 20.2758 77.2324C25.6186 82.5726 34.0748 83.2617 40.2249 78.8785L40.5323 78.4957C43.2998 76.6965 47.1436 77.3281 49.1039 80.0844C51.0834 82.8406 50.4492 86.6687 47.6817 88.6402L47.3742 88.8508C36.1505 96.7176 21.1791 95.4543 11.5716 85.9031C0.71897 75.0887 0.71897 57.5558 11.5716 46.7605L33.1523 25.0933ZM89.8477 72.7344C78.9891 83.5488 61.4039 83.5488 50.5453 72.7344C40.9359 63.164 39.6867 48.0812 47.5856 37.0754L47.797 36.7691C49.6036 34.032 53.4474 33.3812 56.3686 35.3527C59.1361 37.1519 59.7895 40.9801 57.81 43.8894L57.5986 44.1957C53.1975 50.1676 53.8894 58.7426 59.2514 64.0828C65.2861 70.0929 75.1069 70.0929 81.1608 64.0828L102.724 42.5879C108.778 36.5586 108.778 26.6246 102.724 20.7676C97.3814 15.4331 88.9252 14.7363 82.7752 19.1215L82.4677 19.332C79.7002 21.3035 75.8564 20.4996 73.8961 17.9118C71.9166 15.1594 72.5508 11.3331 75.3183 9.3674L75.6258 9.15303C86.6766 1.28834 101.821 2.53611 111.43 12.1045C122.289 22.9113 122.289 40.4441 111.43 51.2394L89.8477 72.7344Z" fill="#DF2E31"/>
</svg>
