<svg width="257" height="292" viewBox="0 0 257 292" fill="none" xmlns="http://www.w3.org/2000/svg">
<g clip-path="url(#clip0_1781_36)">
<path d="M131.045 2.87811L254.5 74.7239V210.471L131.044 289.053L2.5 210.442V74.7527L131.045 2.87811Z" stroke="url(#paint0_linear_1781_36)" stroke-width="5"/>
<path d="M26 88.2275L130.55 30L231 88.2275V198.314L130.55 262L26 198.314V88.2275Z" fill="url(#paint1_linear_1781_36)" fill-opacity="0.95"/>
<path d="M79 97L87.9977 199.042L128.5 212.5L169.002 199.042L178 97H79ZM159.721 117.625L158.484 129.82L128.758 142.53L128.68 142.555H157.427L154.127 180.351L128.809 187.75L103.337 180.222L101.687 161.17H114.295L115.12 171.044L128.68 174.473L142.783 170.502L143.737 154.621L100.862 154.492V154.466L100.811 154.492L99.8828 142.555L128.784 130.516L130.459 129.82H98.7742L97.2789 117.625H159.721Z" fill="#DF2E31"/>
</g>
<defs>
<linearGradient id="paint0_linear_1781_36" x1="0" y1="0" x2="263.128" y2="286.369" gradientUnits="userSpaceOnUse">
<stop stop-color="#DF2E31"/>
<stop offset="1" stop-color="#800C0C"/>
</linearGradient>
<linearGradient id="paint1_linear_1781_36" x1="60.9763" y1="96.9231" x2="205.701" y2="196.777" gradientUnits="userSpaceOnUse">
<stop stop-color="#DF2E31" stop-opacity="0.4"/>
<stop offset="1" stop-color="#DF2E31" stop-opacity="0.15"/>
</linearGradient>
<clipPath id="clip0_1781_36">
<rect width="257" height="292" fill="white"/>
</clipPath>
</defs>
</svg>
