<svg width="257" height="292" viewBox="0 0 257 292" fill="none" xmlns="http://www.w3.org/2000/svg">
<g clip-path="url(#clip0_1781_9)">
<path d="M131.045 2.87811L254.5 74.7239V210.471L131.044 289.053L2.5 210.442V74.7527L131.045 2.87811Z" stroke="url(#paint0_linear_1781_9)" stroke-width="5"/>
<path d="M26 88.2275L130.55 30L231 88.2275V198.314L130.55 262L26 198.314V88.2275Z" fill="url(#paint1_linear_1781_9)" fill-opacity="0.95"/>
<path d="M129 146C129 140.43 131.212 135.089 135.151 131.151C139.089 127.212 144.43 125 150 125C155.57 125 160.911 127.212 164.849 131.151C168.788 135.089 171 140.43 171 146C171 151.57 168.788 156.911 164.849 160.849C160.911 164.788 155.57 167 150 167C144.43 167 139.089 164.788 135.151 160.849C131.212 156.911 129 151.57 129 146V146Z" stroke="#DF2E31" stroke-width="3.5"/>
<path d="M87 188C87 182.43 89.2125 177.089 93.1508 173.151C97.089 169.212 102.43 167 108 167H129V188C129 193.57 126.788 198.911 122.849 202.849C118.911 206.788 113.57 209 108 209C102.43 209 97.089 206.788 93.1508 202.849C89.2125 198.911 87 193.57 87 188Z" stroke="#DF2E31" stroke-width="3.5"/>
<path d="M129 83V125H150C155.57 125 160.911 122.788 164.849 118.849C168.788 114.911 171 109.57 171 104C171 98.4305 168.788 93.089 164.849 89.1508C160.911 85.2125 155.57 83 150 83H129Z" stroke="#DF2E31" stroke-width="3.5"/>
<path d="M87 104C87 109.57 89.2125 114.911 93.1508 118.849C97.089 122.788 102.43 125 108 125H129V83H108C102.43 83 97.089 85.2125 93.1508 89.1508C89.2125 93.089 87 98.4305 87 104Z" stroke="#DF2E31" stroke-width="3.5"/>
<path d="M87 146C87 151.57 89.2125 156.911 93.1508 160.849C97.089 164.788 102.43 167 108 167H129V125H108C102.43 125 97.089 127.212 93.1508 131.151C89.2125 135.089 87 140.43 87 146Z" stroke="#DF2E31" stroke-width="3.5"/>
</g>
<defs>
<linearGradient id="paint0_linear_1781_9" x1="0" y1="0" x2="263.128" y2="286.369" gradientUnits="userSpaceOnUse">
<stop stop-color="#DF2E31"/>
<stop offset="1" stop-color="#800C0C"/>
</linearGradient>
<linearGradient id="paint1_linear_1781_9" x1="60.9763" y1="96.9231" x2="205.701" y2="196.777" gradientUnits="userSpaceOnUse">
<stop stop-color="#DF2E31" stop-opacity="0.4"/>
<stop offset="1" stop-color="#DF2E31" stop-opacity="0.15"/>
</linearGradient>
<clipPath id="clip0_1781_9">
<rect width="257" height="292" fill="white"/>
</clipPath>
</defs>
</svg>
