<svg width="257" height="292" viewBox="0 0 257 292" fill="none" xmlns="http://www.w3.org/2000/svg">
<g clip-path="url(#clip0_1781_106)">
<path d="M131.045 2.87811L254.5 74.7239V210.471L131.044 289.053L2.5 210.442V74.7527L131.045 2.87811Z" stroke="url(#paint0_linear_1781_106)" stroke-width="5"/>
<path d="M26 88.2275L130.55 30L231 88.2275V198.314L130.55 262L26 198.314V88.2275Z" fill="url(#paint1_linear_1781_106)" fill-opacity="0.95"/>
<path d="M108.472 180.245C108.472 180.73 107.91 181.117 107.203 181.117C106.398 181.19 105.837 180.802 105.837 180.245C105.837 179.761 106.398 179.373 107.105 179.373C107.837 179.301 108.472 179.688 108.472 180.245ZM100.885 179.155C100.714 179.64 101.202 180.197 101.934 180.342C102.568 180.584 103.3 180.342 103.446 179.858C103.593 179.373 103.129 178.816 102.397 178.598C101.763 178.429 101.055 178.671 100.885 179.155ZM111.667 178.744C110.96 178.913 110.472 179.373 110.545 179.93C110.618 180.415 111.253 180.73 111.984 180.56C112.692 180.391 113.18 179.93 113.107 179.446C113.033 178.986 112.375 178.671 111.667 178.744ZM127.719 85.9375C93.8833 85.9375 68 111.44 68 145.031C68 171.89 85.0278 194.873 109.35 202.963C112.472 203.52 113.57 201.606 113.57 200.032C113.57 198.53 113.497 190.248 113.497 185.162C113.497 185.162 96.4204 188.795 92.8343 177.945C92.8343 177.945 90.0532 170.897 86.0524 169.08C86.0524 169.08 80.4659 165.278 86.4427 165.351C86.4427 165.351 92.5171 165.835 95.8593 171.599C101.202 180.948 110.155 178.259 113.643 176.661C114.204 172.786 115.79 170.098 117.547 168.499C103.91 166.998 90.1508 165.036 90.1508 141.738C90.1508 135.077 92.0048 131.735 95.9081 127.473C95.2738 125.898 93.2002 119.408 96.5423 111.028C101.641 109.454 113.375 117.567 113.375 117.567C118.254 116.211 123.499 115.509 128.695 115.509C133.891 115.509 139.136 116.211 144.015 117.567C144.015 117.567 155.749 109.43 160.848 111.028C164.19 119.432 162.117 125.898 161.482 127.473C165.385 131.759 167.776 135.102 167.776 141.738C167.776 165.109 153.407 166.973 139.771 168.499C142.015 170.413 143.918 174.045 143.918 179.737C143.918 187.898 143.845 197.998 143.845 199.984C143.845 201.558 144.967 203.471 148.065 202.914C172.46 194.873 189 171.89 189 145.031C189 111.44 161.555 85.9375 127.719 85.9375ZM91.7121 169.468C91.395 169.71 91.4681 170.267 91.8829 170.727C92.2732 171.115 92.8343 171.284 93.1514 170.97C93.4685 170.727 93.3954 170.17 92.9806 169.71C92.5903 169.323 92.0292 169.153 91.7121 169.468ZM89.0774 167.506C88.9067 167.821 89.1506 168.209 89.6385 168.451C90.0288 168.693 90.5167 168.62 90.6875 168.281C90.8583 167.966 90.6143 167.579 90.1264 167.337C89.6385 167.191 89.2482 167.264 89.0774 167.506ZM96.9815 176.128C96.5911 176.443 96.7375 177.17 97.2986 177.63C97.8597 178.187 98.5671 178.259 98.8843 177.872C99.2014 177.557 99.055 176.83 98.5671 176.37C98.0304 175.813 97.2986 175.741 96.9815 176.128ZM94.2004 172.568C93.8101 172.81 93.8101 173.44 94.2004 173.997C94.5907 174.554 95.2494 174.796 95.5665 174.554C95.9569 174.239 95.9569 173.609 95.5665 173.052C95.225 172.495 94.5907 172.253 94.2004 172.568Z" fill="#DF2E31"/>
</g>
<defs>
<linearGradient id="paint0_linear_1781_106" x1="0" y1="0" x2="263.128" y2="286.369" gradientUnits="userSpaceOnUse">
<stop stop-color="#DF2E31"/>
<stop offset="1" stop-color="#800C0C"/>
</linearGradient>
<linearGradient id="paint1_linear_1781_106" x1="60.9763" y1="96.9231" x2="205.701" y2="196.777" gradientUnits="userSpaceOnUse">
<stop stop-color="#DF2E31" stop-opacity="0.4"/>
<stop offset="1" stop-color="#DF2E31" stop-opacity="0.15"/>
</linearGradient>
<clipPath id="clip0_1781_106">
<rect width="257" height="292" fill="white"/>
</clipPath>
</defs>
</svg>
