<svg width="96" height="98" viewBox="0 0 96 98" fill="none" xmlns="http://www.w3.org/2000/svg">
<g clip-path="url(#clip0_1781_7)">
<path d="M31.9382 76.0648C31.9382 76.4477 31.4954 76.7539 30.9371 76.7539C30.3018 76.8113 29.859 76.5051 29.859 76.0648C29.859 75.682 30.3018 75.3758 30.8601 75.3758C31.4376 75.3184 31.9382 75.6246 31.9382 76.0648ZM25.951 75.2035C25.8162 75.5863 26.2012 76.0266 26.7788 76.1414C27.2793 76.3328 27.8568 76.1414 27.9724 75.7586C28.0879 75.3758 27.7221 74.9356 27.1445 74.7633C26.644 74.6293 26.0857 74.8207 25.951 75.2035ZM34.4601 74.8781C33.9018 75.0121 33.5168 75.3758 33.5745 75.816C33.6323 76.1988 34.1328 76.4477 34.7104 76.3137C35.2687 76.1797 35.6537 75.816 35.5959 75.4332C35.5382 75.0695 35.0184 74.8207 34.4601 74.8781ZM47.1275 1.53125C20.4258 1.53125 0 21.6863 0 48.2344C0 69.4613 13.4375 87.6258 32.6312 94.0188C35.0954 94.459 35.9617 92.9469 35.9617 91.7027C35.9617 90.516 35.904 83.9699 35.904 79.9504C35.904 79.9504 22.4279 82.8215 19.598 74.2465C19.598 74.2465 17.4033 68.6766 14.2461 67.241C14.2461 67.241 9.83749 64.2359 14.5541 64.2934C14.5541 64.2934 19.3477 64.6762 21.9852 69.2316C26.2012 76.6199 33.2665 74.4953 36.0195 73.232C36.4622 70.1695 37.7136 68.0449 39.0997 66.7816C28.3381 65.5949 17.4803 64.0445 17.4803 45.6313C17.4803 40.3676 18.9434 37.7262 22.0237 34.3574C21.5231 33.1133 19.8867 27.9836 22.5242 21.3609C26.5477 20.1168 35.8077 26.5289 35.8077 26.5289C39.658 25.457 43.797 24.902 47.8976 24.902C51.9982 24.902 56.1372 25.457 59.9875 26.5289C59.9875 26.5289 69.2475 20.0977 73.271 21.3609C75.9085 28.0027 74.2721 33.1133 73.7716 34.3574C76.8518 37.7453 78.7384 40.3867 78.7384 45.6313C78.7384 64.102 67.3993 65.5758 56.6378 66.7816C58.4089 68.2938 59.9105 71.1648 59.9105 75.6629C59.9105 82.1133 59.8528 90.0949 59.8528 91.6645C59.8528 92.9086 60.7383 94.4207 63.1833 93.9805C82.4347 87.6258 95.4872 69.4613 95.4872 48.2344C95.4872 21.6863 73.8293 1.53125 47.1275 1.53125ZM18.7124 67.5473C18.4621 67.7387 18.5199 68.1789 18.8472 68.5426C19.1552 68.8488 19.598 68.9828 19.8482 68.734C20.0985 68.5426 20.0408 68.1023 19.7135 67.7387C19.4055 67.4324 18.9627 67.2984 18.7124 67.5473ZM16.6333 65.9969C16.4985 66.2457 16.691 66.552 17.076 66.7434C17.3841 66.9348 17.7691 66.8773 17.9038 66.6094C18.0386 66.3606 17.8461 66.0543 17.4611 65.8629C17.076 65.7481 16.768 65.8055 16.6333 65.9969ZM22.8707 72.8109C22.5627 73.0598 22.6782 73.634 23.121 73.9977C23.5638 74.4379 24.1221 74.4953 24.3723 74.1891C24.6226 73.9402 24.5071 73.366 24.1221 73.0023C23.6985 72.5621 23.121 72.5047 22.8707 72.8109ZM20.6761 69.9973C20.368 70.1887 20.368 70.6863 20.6761 71.1266C20.9841 71.5668 21.5039 71.7582 21.7541 71.5668C22.0622 71.318 22.0622 70.8203 21.7541 70.3801C21.4846 69.9399 20.9841 69.7484 20.6761 69.9973Z" fill="#DF2E31"/>
</g>
<defs>
<clipPath id="clip0_1781_7">
<rect width="95.4872" height="98" fill="white"/>
</clipPath>
</defs>
</svg>
