<svg width="257" height="292" viewBox="0 0 257 292" fill="none" xmlns="http://www.w3.org/2000/svg">
<g clip-path="url(#clip0_1781_18)">
<path d="M131.045 2.87811L254.5 74.7239V210.471L131.044 289.053L2.5 210.442V74.7527L131.045 2.87811Z" stroke="url(#paint0_linear_1781_18)" stroke-width="5"/>
<path d="M26 88.2275L130.55 30L231 88.2275V198.314L130.55 262L26 198.314V88.2275Z" fill="url(#paint1_linear_1781_18)" fill-opacity="0.95"/>
<g clip-path="url(#clip1_1781_18)">
<path d="M91.6042 89.0117H170.396C182.342 89.0117 192 98.2662 192 109.713V182.287C192 193.734 182.342 202.988 170.396 202.988H91.6042C79.6583 202.988 70 193.734 70 182.287V109.713C70 98.2662 79.6583 89.0117 91.6042 89.0117Z" fill="#800C0C"/>
<path d="M126.55 157.203H108.415L104.71 168.649C104.612 169.088 104.222 169.38 103.784 169.331H94.6187C94.0825 169.331 93.9362 169.039 94.0825 168.454L109.78 123.302C109.926 122.815 110.072 122.279 110.267 121.695C110.462 120.672 110.56 119.6 110.56 118.529C110.511 118.285 110.706 118.042 110.95 117.993H123.576C123.966 117.993 124.161 118.139 124.21 118.383L142.004 168.552C142.15 169.088 142.004 169.331 141.516 169.331H131.327C130.986 169.38 130.645 169.136 130.547 168.795L126.55 157.203ZM111.242 147.315H123.625C123.332 146.292 122.942 145.075 122.504 143.808C122.065 142.493 121.626 141.081 121.187 139.619C120.7 138.109 120.261 136.648 119.774 135.138C119.286 133.628 118.847 132.216 118.457 130.803C118.067 129.439 117.726 128.173 117.385 127.004H117.287C116.849 129.098 116.312 131.193 115.63 133.287C114.899 135.625 114.167 138.061 113.387 140.496C112.705 142.98 111.974 145.269 111.242 147.315ZM152.875 126.517C151.266 126.566 149.706 125.932 148.536 124.812C147.415 123.594 146.83 121.987 146.879 120.331C146.83 118.675 147.464 117.116 148.634 115.996C149.804 114.876 151.364 114.291 152.972 114.291C154.874 114.291 156.336 114.876 157.409 115.996C158.481 117.165 159.066 118.724 159.017 120.331C159.066 121.987 158.481 123.594 157.311 124.812C156.19 125.981 154.532 126.614 152.875 126.517ZM147.415 168.795V131.29C147.415 130.803 147.61 130.608 148.049 130.608H157.701C158.14 130.608 158.335 130.852 158.335 131.29V168.795C158.335 169.331 158.14 169.575 157.701 169.575H148.146C147.659 169.575 147.415 169.282 147.415 168.795V168.795Z" fill="#DF2E31"/>
</g>
</g>
<defs>
<linearGradient id="paint0_linear_1781_18" x1="0" y1="0" x2="263.128" y2="286.369" gradientUnits="userSpaceOnUse">
<stop stop-color="#DF2E31"/>
<stop offset="1" stop-color="#800C0C"/>
</linearGradient>
<linearGradient id="paint1_linear_1781_18" x1="60.9763" y1="96.9231" x2="205.701" y2="196.777" gradientUnits="userSpaceOnUse">
<stop stop-color="#DF2E31" stop-opacity="0.4"/>
<stop offset="1" stop-color="#DF2E31" stop-opacity="0.15"/>
</linearGradient>
<clipPath id="clip0_1781_18">
<rect width="257" height="292" fill="white"/>
</clipPath>
<clipPath id="clip1_1781_18">
<rect width="117" height="114" fill="white" transform="translate(70 89)"/>
</clipPath>
</defs>
</svg>
