<svg width="257" height="292" viewBox="0 0 257 292" fill="none" xmlns="http://www.w3.org/2000/svg">
<g clip-path="url(#clip0_1781_69)">
<path d="M131.045 2.87811L254.5 74.7239V210.471L131.044 289.053L2.5 210.442V74.7527L131.045 2.87811Z" stroke="url(#paint0_linear_1781_69)" stroke-width="5"/>
<path d="M26 88.2275L130.55 30L231 88.2275V198.314L130.55 262L26 198.314V88.2275Z" fill="url(#paint1_linear_1781_69)" fill-opacity="0.95"/>
<g clip-path="url(#clip1_1781_69)">
<path d="M128.5 92.6219C145.722 92.6219 147.762 92.6874 154.563 92.9977C160.852 93.2847 164.267 94.3355 166.54 95.2185C169.551 96.3886 171.7 97.7866 173.957 100.043C176.213 102.3 177.611 104.449 178.781 107.46C179.665 109.733 180.715 113.148 181.002 119.436C181.313 126.238 181.378 128.278 181.378 145.5C181.378 162.722 181.313 164.762 181.002 171.564C180.715 177.852 179.665 181.267 178.781 183.541C177.611 186.551 176.213 188.7 173.957 190.957C171.7 193.214 169.551 194.612 166.54 195.781C164.267 196.665 160.852 197.716 154.563 198.003C147.763 198.313 145.723 198.378 128.5 198.378C111.277 198.378 109.237 198.313 102.436 198.003C96.1478 197.716 92.7326 196.665 90.4597 195.781C87.4491 194.612 85.3002 193.214 83.0432 190.957C80.7863 188.7 79.3884 186.551 78.2185 183.541C77.3352 181.267 76.2845 177.852 75.9975 171.564C75.6871 164.762 75.6216 162.722 75.6216 145.5C75.6216 128.278 75.6871 126.238 75.9975 119.437C76.2845 113.148 77.3352 109.733 78.2185 107.46C79.3884 104.449 80.7863 102.3 83.0432 100.043C85.3002 97.7866 87.4491 96.3886 90.4597 95.2185C92.7326 94.3355 96.1478 93.2847 102.436 92.9977C109.238 92.6874 111.278 92.6219 128.5 92.6219ZM128.5 81C110.983 81 108.786 81.0742 101.907 81.3881C95.0412 81.7015 90.3527 82.7917 86.2498 84.3863C82.0083 86.0346 78.4113 88.2401 74.8256 91.8258C71.2398 95.4116 69.0344 99.0086 67.386 103.25C65.7915 107.353 64.7013 112.041 64.3879 118.907C64.074 125.786 64 127.983 64 145.5C64 163.017 64.074 165.214 64.3879 172.093C64.7013 178.959 65.7915 183.647 67.386 187.75C69.0344 191.991 71.2398 195.589 74.8256 199.174C78.4113 202.76 82.0083 204.966 86.2498 206.614C90.3527 208.209 95.0412 209.299 101.907 209.612C108.786 209.926 110.983 210 128.5 210C146.017 210 148.214 209.926 155.093 209.612C161.959 209.299 166.647 208.209 170.75 206.614C174.991 204.966 178.588 202.76 182.174 199.174C185.76 195.589 187.965 191.992 189.614 187.75C191.208 183.647 192.298 178.959 192.612 172.093C192.926 165.214 193 163.017 193 145.5C193 127.983 192.926 125.786 192.612 118.907C192.298 112.041 191.208 107.353 189.614 103.25C187.965 99.0086 185.76 95.4116 182.174 91.8258C178.588 88.2401 174.991 86.0346 170.75 84.3863C166.647 82.7917 161.959 81.7015 155.093 81.3881C148.214 81.0742 146.017 81 128.5 81ZM128.5 112.378C110.207 112.378 95.3781 127.208 95.3781 145.5C95.3781 163.793 110.207 178.622 128.5 178.622C146.792 178.622 161.622 163.793 161.622 145.5C161.622 127.208 146.792 112.378 128.5 112.378ZM128.5 167C116.626 167 107 157.374 107 145.5C107 133.626 116.626 124 128.5 124C140.374 124 150 133.626 150 145.5C150 157.374 140.374 167 128.5 167ZM170.67 111.07C170.67 115.345 167.205 118.81 162.93 118.81C158.655 118.81 155.19 115.345 155.19 111.07C155.19 106.795 158.655 103.33 162.93 103.33C167.205 103.33 170.67 106.795 170.67 111.07Z" fill="#DF2E31"/>
</g>
</g>
<defs>
<linearGradient id="paint0_linear_1781_69" x1="0" y1="0" x2="263.128" y2="286.369" gradientUnits="userSpaceOnUse">
<stop stop-color="#DF2E31"/>
<stop offset="1" stop-color="#800C0C"/>
</linearGradient>
<linearGradient id="paint1_linear_1781_69" x1="60.9763" y1="96.9231" x2="205.701" y2="196.777" gradientUnits="userSpaceOnUse">
<stop stop-color="#DF2E31" stop-opacity="0.4"/>
<stop offset="1" stop-color="#DF2E31" stop-opacity="0.15"/>
</linearGradient>
<clipPath id="clip0_1781_69">
<rect width="257" height="292" fill="white"/>
</clipPath>
<clipPath id="clip1_1781_69">
<rect width="129" height="129" fill="white" transform="translate(64 81)"/>
</clipPath>
</defs>
</svg>
