<svg width="257" height="292" viewBox="0 0 257 292" fill="none" xmlns="http://www.w3.org/2000/svg">
<g clip-path="url(#clip0_1781_60)">
<path d="M131.045 2.87811L254.5 74.7239V210.471L131.044 289.053L2.5 210.442V74.7527L131.045 2.87811Z" stroke="url(#paint0_linear_1781_60)" stroke-width="5"/>
<path d="M26 88.2275L130.55 30L231 88.2275V198.314L130.55 262L26 198.314V88.2275Z" fill="url(#paint1_linear_1781_60)" fill-opacity="0.95"/>
<path d="M75 92V199H182V92H75ZM133.229 175.45C133.229 185.864 127.115 190.617 118.206 190.617C110.157 190.617 105.5 186.461 103.111 181.421L111.304 176.477C112.88 179.272 114.313 181.636 117.776 181.636C121.072 181.636 123.174 180.347 123.174 175.307V141.129H133.229V175.45V175.45ZM157.017 190.617C147.679 190.617 141.636 186.174 138.698 180.347L146.891 175.618C149.04 179.129 151.858 181.732 156.802 181.732C160.958 181.732 163.633 179.654 163.633 176.764C163.633 173.325 160.91 172.107 156.301 170.077L153.793 169.002C146.532 165.921 141.732 162.028 141.732 153.835C141.732 146.288 147.488 140.556 156.444 140.556C162.845 140.556 167.431 142.777 170.727 148.605L162.893 153.621C161.173 150.54 159.31 149.321 156.42 149.321C153.483 149.321 151.62 151.184 151.62 153.621C151.62 156.63 153.483 157.848 157.806 159.735L160.313 160.81C168.864 164.464 173.665 168.214 173.665 176.621C173.665 185.649 166.547 190.617 157.017 190.617V190.617Z" fill="#DF2E31"/>
</g>
<defs>
<linearGradient id="paint0_linear_1781_60" x1="0" y1="0" x2="263.128" y2="286.369" gradientUnits="userSpaceOnUse">
<stop stop-color="#DF2E31"/>
<stop offset="1" stop-color="#800C0C"/>
</linearGradient>
<linearGradient id="paint1_linear_1781_60" x1="60.9763" y1="96.9231" x2="205.701" y2="196.777" gradientUnits="userSpaceOnUse">
<stop stop-color="#DF2E31" stop-opacity="0.4"/>
<stop offset="1" stop-color="#DF2E31" stop-opacity="0.15"/>
</linearGradient>
<clipPath id="clip0_1781_60">
<rect width="257" height="292" fill="white"/>
</clipPath>
</defs>
</svg>
