<svg width="257" height="292" viewBox="0 0 257 292" fill="none" xmlns="http://www.w3.org/2000/svg">
<g clip-path="url(#clip0_1781_91)">
<path d="M131.045 2.87811L254.5 74.7239V210.471L131.044 289.053L2.5 210.442V74.7527L131.045 2.87811Z" stroke="url(#paint0_linear_1781_91)" stroke-width="5"/>
<path d="M26 88.2275L130.55 30L231 88.2275V198.314L130.55 262L26 198.314V88.2275Z" fill="url(#paint1_linear_1781_91)" fill-opacity="0.95"/>
<path d="M164.583 85H93.4167C79.3816 85 68 96.3816 68 110.417V181.583C68 195.618 79.3816 207 93.4167 207H164.583C178.624 207 190 195.618 190 181.583V110.417C190 96.3816 178.624 85 164.583 85ZM108.667 181.583H93.4167V125.667H108.667V181.583ZM101.042 119.221C96.1312 119.221 92.1458 115.205 92.1458 110.254C92.1458 105.303 96.1312 101.287 101.042 101.287C105.952 101.287 109.938 105.303 109.938 110.254C109.938 115.205 105.957 119.221 101.042 119.221ZM169.667 181.583H154.417V153.096C154.417 135.976 134.083 137.272 134.083 153.096V181.583H118.833V125.667H134.083V134.639C141.18 121.493 169.667 120.522 169.667 147.225V181.583Z" fill="#DF2E31"/>
</g>
<defs>
<linearGradient id="paint0_linear_1781_91" x1="0" y1="0" x2="263.128" y2="286.369" gradientUnits="userSpaceOnUse">
<stop stop-color="#DF2E31"/>
<stop offset="1" stop-color="#800C0C"/>
</linearGradient>
<linearGradient id="paint1_linear_1781_91" x1="60.9763" y1="96.9231" x2="205.701" y2="196.777" gradientUnits="userSpaceOnUse">
<stop stop-color="#DF2E31" stop-opacity="0.4"/>
<stop offset="1" stop-color="#DF2E31" stop-opacity="0.15"/>
</linearGradient>
<clipPath id="clip0_1781_91">
<rect width="257" height="292" fill="white"/>
</clipPath>
</defs>
</svg>
