<svg width="257" height="292" viewBox="0 0 257 292" fill="none" xmlns="http://www.w3.org/2000/svg">
<g clip-path="url(#clip0_1781_100)">
<path d="M131.045 2.87811L254.5 74.7239V210.471L131.044 289.053L2.5 210.442V74.7527L131.045 2.87811Z" stroke="url(#paint0_linear_1781_100)" stroke-width="5"/>
<path d="M26 88.2275L130.55 30L231 88.2275V198.314L130.55 262L26 198.314V88.2275Z" fill="url(#paint1_linear_1781_100)" fill-opacity="0.95"/>
<path d="M82.8334 99.8333H174.167C180.446 99.8333 185.583 104.971 185.583 111.25V179.75C185.583 186.029 180.446 191.167 174.167 191.167H82.8334C76.5542 191.167 71.4167 186.029 71.4167 179.75V111.25C71.4167 104.971 76.5542 99.8333 82.8334 99.8333Z" stroke="#DF2E31" stroke-width="6" stroke-linecap="round" stroke-linejoin="round"/>
<path d="M185.583 111.25L128.5 151.208L71.4167 111.25" stroke="#DF2E31" stroke-width="6" stroke-linecap="round" stroke-linejoin="round"/>
</g>
<defs>
<linearGradient id="paint0_linear_1781_100" x1="0" y1="0" x2="263.128" y2="286.369" gradientUnits="userSpaceOnUse">
<stop stop-color="#DF2E31"/>
<stop offset="1" stop-color="#800C0C"/>
</linearGradient>
<linearGradient id="paint1_linear_1781_100" x1="60.9763" y1="96.9231" x2="205.701" y2="196.777" gradientUnits="userSpaceOnUse">
<stop stop-color="#DF2E31" stop-opacity="0.4"/>
<stop offset="1" stop-color="#DF2E31" stop-opacity="0.15"/>
</linearGradient>
<clipPath id="clip0_1781_100">
<rect width="257" height="292" fill="white"/>
</clipPath>
</defs>
</svg>
