<svg width="257" height="292" viewBox="0 0 257 292" fill="none" xmlns="http://www.w3.org/2000/svg">
<g clip-path="url(#clip0_1781_50)">
<path d="M131.045 2.87811L254.5 74.7239V210.471L131.044 289.053L2.5 210.442V74.7527L131.045 2.87811Z" stroke="url(#paint0_linear_1781_50)" stroke-width="5"/>
<path d="M26 88.2275L130.55 30L231 88.2275V198.314L130.55 262L26 198.314V88.2275Z" fill="url(#paint1_linear_1781_50)" fill-opacity="0.95"/>
<path d="M128.5 216.867C126.601 216.867 124.673 216.357 123 215.395L105.51 205.058C102.902 203.585 104.177 203.075 105.028 202.792C108.515 201.574 109.223 201.319 112.937 199.195C113.334 198.969 113.844 199.054 114.241 199.309L127.678 207.267C128.16 207.55 128.84 207.55 129.294 207.267L181.653 177.077C182.135 176.794 182.447 176.228 182.447 175.661V115.282C182.447 114.688 182.135 114.149 181.625 113.838L129.294 83.6768C128.812 83.3936 128.16 83.3936 127.678 83.6768L75.3755 113.866C74.8652 114.149 74.5534 114.716 74.5534 115.311V175.661C74.5534 176.228 74.8652 176.794 75.3755 177.049L89.7197 185.318C97.5154 189.198 102.278 184.639 102.278 180.022V120.437C102.278 119.587 102.958 118.936 103.809 118.936H110.442C111.264 118.936 111.973 119.587 111.973 120.437V180.051C111.973 190.416 106.303 196.363 96.4666 196.363C93.4333 196.363 91.0521 196.363 84.4186 193.078L70.698 185.177C67.2963 183.223 65.1985 179.569 65.1985 175.633V115.282C65.1985 111.374 67.2963 107.692 70.698 105.738L123 75.5488C126.317 73.6797 130.711 73.6797 134 75.5488L186.359 105.767C189.761 107.721 191.858 111.374 191.858 115.311V175.661C191.858 179.569 189.761 183.223 186.359 185.205L134 215.395C132.327 216.357 130.428 216.867 128.5 216.867ZM170.767 157.366C170.767 146.066 163.113 143.064 147.04 140.94C130.768 138.788 129.124 137.684 129.124 133.889C129.124 130.745 130.513 126.554 142.561 126.554C153.305 126.554 157.273 128.876 158.918 136.126C159.059 136.806 159.683 137.315 160.392 137.315H167.195C167.621 137.315 168.017 137.146 168.301 136.834C168.584 136.522 168.726 136.098 168.698 135.673C167.649 123.184 159.343 117.378 142.561 117.378C127.621 117.378 118.72 123.665 118.72 134.229C118.72 145.67 127.593 148.842 141.909 150.258C159.059 151.929 160.392 154.449 160.392 157.819C160.392 163.653 155.686 166.146 144.659 166.146C130.796 166.146 127.763 162.662 126.742 155.78C126.629 155.044 126.005 154.506 125.24 154.506H118.465C117.614 154.506 116.962 155.186 116.962 156.007C116.962 164.814 121.753 175.321 144.687 175.321C161.242 175.293 170.767 168.751 170.767 157.366V157.366Z" fill="#DF2E31"/>
</g>
<defs>
<linearGradient id="paint0_linear_1781_50" x1="0" y1="0" x2="263.128" y2="286.369" gradientUnits="userSpaceOnUse">
<stop stop-color="#DF2E31"/>
<stop offset="1" stop-color="#800C0C"/>
</linearGradient>
<linearGradient id="paint1_linear_1781_50" x1="60.9763" y1="96.9231" x2="205.701" y2="196.777" gradientUnits="userSpaceOnUse">
<stop stop-color="#DF2E31" stop-opacity="0.4"/>
<stop offset="1" stop-color="#DF2E31" stop-opacity="0.15"/>
</linearGradient>
<clipPath id="clip0_1781_50">
<rect width="257" height="292" fill="white"/>
</clipPath>
</defs>
</svg>
