<svg width="257" height="292" viewBox="0 0 257 292" fill="none" xmlns="http://www.w3.org/2000/svg">
<g clip-path="url(#clip0_1781_25)">
<path d="M131.045 2.87811L254.5 74.7239V210.471L131.044 289.053L2.5 210.442V74.7527L131.045 2.87811Z" stroke="url(#paint0_linear_1781_25)" stroke-width="5"/>
<path d="M26 88.2275L130.55 30L231 88.2275V198.314L130.55 262L26 198.314V88.2275Z" fill="url(#paint1_linear_1781_25)" fill-opacity="0.95"/>
<g clip-path="url(#clip1_1781_25)">
<path d="M89.6042 87.0121H168.396C180.342 87.0121 190 96.5913 190 108.439V183.561C190 195.409 180.342 204.988 168.396 204.988H89.6042C77.6583 204.988 68 195.409 68 183.561V108.439C68 96.5913 77.6583 87.0121 89.6042 87.0121Z" fill="#DF2E31"/>
<path d="M95.45 169.746V117.867C95.45 117.514 95.6025 117.313 95.9583 117.313C96.8225 117.313 97.6358 117.313 98.805 117.262C100.025 117.212 101.296 117.212 102.668 117.162C104.041 117.111 105.515 117.111 107.091 117.061C108.667 117.01 110.192 117.01 111.717 117.01C115.885 117.01 119.342 117.514 122.188 118.573C124.73 119.43 127.068 120.842 129 122.707C130.627 124.321 131.897 126.287 132.711 128.455C133.473 130.572 133.88 132.74 133.88 135.009C133.88 139.345 132.863 142.925 130.83 145.748C128.797 148.571 125.95 150.689 122.646 151.899C119.189 153.159 115.377 153.613 111.208 153.613C109.988 153.613 109.175 153.613 108.667 153.563C108.158 153.512 107.447 153.512 106.481 153.512V169.696C106.532 170.049 106.277 170.351 105.922 170.402H96.06C95.6533 170.402 95.45 170.2 95.45 169.746ZM106.532 127.043V143.983C107.243 144.034 107.904 144.084 108.514 144.084H111.208C113.191 144.084 115.173 143.782 117.054 143.177C118.681 142.723 120.104 141.765 121.222 140.505C122.29 139.244 122.798 137.53 122.798 135.312C122.849 133.749 122.442 132.186 121.629 130.825C120.765 129.514 119.545 128.505 118.071 127.951C116.19 127.194 114.157 126.892 112.072 126.942C110.751 126.942 109.582 126.942 108.616 126.993C107.599 126.942 106.887 126.993 106.532 127.043V127.043ZM165.6 140.908C164.075 140.101 162.448 139.547 160.72 139.194C158.839 138.79 156.958 138.538 155.027 138.538C154.01 138.488 152.943 138.639 151.977 138.891C151.316 139.042 150.757 139.395 150.401 139.9C150.147 140.303 149.994 140.807 149.994 141.261C149.994 141.715 150.198 142.168 150.503 142.572C150.96 143.126 151.57 143.58 152.231 143.933C153.4 144.538 154.62 145.093 155.84 145.597C158.585 146.504 161.228 147.765 163.668 149.277C165.346 150.336 166.718 151.748 167.684 153.462C168.498 155.075 168.904 156.84 168.853 158.655C168.904 161.024 168.193 163.394 166.871 165.36C165.448 167.377 163.465 168.94 161.178 169.847C158.687 170.906 155.637 171.461 151.977 171.461C149.638 171.461 147.351 171.259 145.063 170.805C143.284 170.503 141.505 169.948 139.878 169.192C139.522 168.99 139.268 168.637 139.319 168.234V159.461C139.319 159.31 139.37 159.108 139.522 159.008C139.675 158.907 139.827 158.957 139.98 159.058C141.962 160.218 144.047 161.024 146.283 161.528C148.215 162.033 150.248 162.285 152.282 162.285C154.213 162.285 155.586 162.033 156.501 161.579C157.314 161.226 157.873 160.369 157.873 159.461C157.873 158.756 157.467 158.1 156.653 157.445C155.84 156.789 154.163 156.033 151.672 155.075C149.079 154.168 146.69 152.958 144.453 151.445C142.877 150.336 141.556 148.874 140.59 147.16C139.777 145.546 139.37 143.782 139.421 142.017C139.421 139.849 140.031 137.782 141.149 135.917C142.42 133.9 144.301 132.287 146.487 131.278C148.876 130.068 151.875 129.514 155.484 129.514C157.568 129.514 159.703 129.665 161.788 129.967C163.313 130.169 164.787 130.572 166.159 131.127C166.363 131.177 166.566 131.379 166.668 131.581C166.718 131.782 166.769 131.984 166.769 132.186V140.404C166.769 140.605 166.668 140.807 166.515 140.908C166.058 141.009 165.803 141.009 165.6 140.908V140.908Z" fill="#800C0C"/>
</g>
</g>
<defs>
<linearGradient id="paint0_linear_1781_25" x1="0" y1="0" x2="263.128" y2="286.369" gradientUnits="userSpaceOnUse">
<stop stop-color="#DF2E31"/>
<stop offset="1" stop-color="#800C0C"/>
</linearGradient>
<linearGradient id="paint1_linear_1781_25" x1="60.9763" y1="96.9231" x2="205.701" y2="196.777" gradientUnits="userSpaceOnUse">
<stop stop-color="#DF2E31" stop-opacity="0.4"/>
<stop offset="1" stop-color="#DF2E31" stop-opacity="0.15"/>
</linearGradient>
<clipPath id="clip0_1781_25">
<rect width="257" height="292" fill="white"/>
</clipPath>
<clipPath id="clip1_1781_25">
<rect width="122" height="118" fill="white" transform="translate(68 87)"/>
</clipPath>
</defs>
</svg>
