<svg width="257" height="292" viewBox="0 0 257 292" fill="none" xmlns="http://www.w3.org/2000/svg">
<g clip-path="url(#clip0_1781_64)">
<path d="M131.045 2.87811L254.5 74.7239V210.471L131.044 289.053L2.5 210.442V74.7527L131.045 2.87811Z" stroke="url(#paint0_linear_1781_64)" stroke-width="5"/>
<path d="M26 88.2275L130.55 30L231 88.2275V198.314L130.55 262L26 198.314V88.2275Z" fill="url(#paint1_linear_1781_64)" fill-opacity="0.95"/>
<path d="M168.916 126.608C167.588 126.165 166.259 125.746 164.93 125.353C165.151 124.442 165.348 123.532 165.545 122.621C168.572 107.954 166.579 96.166 159.86 92.2777C153.388 88.5617 142.83 92.4254 132.15 101.728C131.092 102.638 130.058 103.598 129.074 104.558C128.409 103.918 127.72 103.278 127.031 102.663C115.834 92.7207 104.612 88.5371 97.8938 92.45C91.4461 96.1906 89.5266 107.289 92.2336 121.169C92.5043 122.547 92.7996 123.901 93.1441 125.279C91.5691 125.722 90.0187 126.214 88.5668 126.731C75.4254 131.284 66 138.469 66 145.902C66 153.58 76.0406 161.282 89.6988 165.958C90.8063 166.327 91.9137 166.696 93.0457 167.016C92.6766 168.493 92.3566 169.945 92.0613 171.446C89.4773 185.104 91.4953 195.932 97.943 199.648C104.588 203.487 115.76 199.55 126.637 190.026C127.499 189.263 128.36 188.476 129.221 187.639C130.304 188.697 131.436 189.706 132.568 190.691C143.101 199.747 153.511 203.414 159.934 199.698C166.579 195.859 168.744 184.218 165.939 170.043C165.717 168.961 165.471 167.853 165.2 166.721C165.988 166.5 166.751 166.253 167.514 166.007C181.713 161.307 192 153.703 192 145.902C192 138.445 182.304 131.21 168.916 126.608V126.608ZM135.62 105.714C144.775 97.741 153.314 94.6156 157.202 96.8551C161.361 99.2422 162.961 108.889 160.352 121.563C160.18 122.4 160.008 123.212 159.786 124.024C154.323 122.793 148.786 121.907 143.224 121.415C140.025 116.838 136.53 112.457 132.741 108.348C133.7 107.437 134.636 106.576 135.62 105.714V105.714ZM107.147 158.674C108.402 160.815 109.682 162.956 111.035 165.048C107.196 164.629 103.382 164.014 99.6164 163.202C100.699 159.658 102.053 155.991 103.628 152.251C104.76 154.416 105.916 156.557 107.147 158.674V158.674ZM99.6902 129.069C103.234 128.281 106.999 127.641 110.912 127.149C109.608 129.192 108.328 131.284 107.122 133.4C105.916 135.492 104.735 137.633 103.628 139.798C102.077 136.132 100.773 132.539 99.6902 129.069ZM106.433 146.025C108.057 142.628 109.829 139.306 111.7 136.033C113.57 132.76 115.588 129.586 117.704 126.46C121.396 126.189 125.161 126.042 129 126.042C132.839 126.042 136.629 126.189 140.296 126.46C142.387 129.561 144.381 132.736 146.276 135.984C148.171 139.232 149.943 142.555 151.616 145.926C149.967 149.322 148.195 152.669 146.3 155.967C144.43 159.24 142.437 162.414 140.345 165.564C136.678 165.835 132.864 165.958 129 165.958C125.136 165.958 121.396 165.835 117.778 165.614C115.637 162.488 113.619 159.289 111.724 156.016C109.829 152.743 108.082 149.421 106.433 146.025ZM150.878 158.625C152.133 156.459 153.314 154.269 154.471 152.054C156.046 155.622 157.424 159.24 158.63 162.956C154.815 163.817 150.952 164.482 147.063 164.925C148.392 162.857 149.647 160.741 150.878 158.625ZM154.421 139.798C153.265 137.633 152.084 135.467 150.853 133.351C149.647 131.259 148.392 129.192 147.088 127.149C151.05 127.641 154.84 128.306 158.384 129.118C157.252 132.76 155.923 136.304 154.421 139.798V139.798ZM129.049 112.113C131.633 114.918 134.07 117.871 136.334 120.923C131.461 120.702 126.564 120.702 121.691 120.923C124.103 117.748 126.588 114.795 129.049 112.113ZM100.502 97.0273C104.637 94.6156 113.816 98.0609 123.488 106.625C124.103 107.166 124.718 107.757 125.358 108.348C121.543 112.457 118.024 116.838 114.8 121.415C109.239 121.907 103.726 122.769 98.2629 123.975C97.943 122.719 97.6723 121.44 97.4016 120.16C95.0883 108.249 96.6141 99.2668 100.502 97.0273V97.0273ZM94.473 161.898C93.4395 161.602 92.4305 161.282 91.4215 160.938C86.1797 159.289 80.2242 156.68 75.9176 153.26C73.432 151.537 71.7586 148.879 71.291 145.902C71.291 141.398 79.0676 135.639 90.2895 131.727C91.6922 131.234 93.1195 130.791 94.5469 130.373C96.2203 135.713 98.2383 140.955 100.576 146.025C98.2137 151.168 96.1711 156.484 94.473 161.898V161.898ZM123.168 186.015C119.107 189.731 114.407 192.684 109.288 194.702C106.556 196.006 103.406 196.129 100.601 195.022C96.6879 192.758 95.0637 184.071 97.2785 172.381C97.5492 171.003 97.8445 169.625 98.1891 168.271C103.702 169.453 109.263 170.265 114.899 170.683C118.147 175.285 121.716 179.69 125.53 183.825C124.743 184.587 123.955 185.326 123.168 186.015ZM129.197 180.035C126.687 177.328 124.177 174.325 121.74 171.102C124.103 171.2 126.539 171.249 129 171.249C131.535 171.249 134.02 171.2 136.481 171.077C134.217 174.202 131.781 177.18 129.197 180.035V180.035ZM161.361 187.418C161.14 190.42 159.663 193.225 157.301 195.12C153.388 197.384 145.045 194.431 136.038 186.704C135.005 185.818 133.971 184.858 132.913 183.874C136.678 179.715 140.148 175.31 143.298 170.683C148.934 170.216 154.545 169.354 160.082 168.099C160.328 169.108 160.549 170.117 160.746 171.102C161.952 176.417 162.149 181.954 161.361 187.418V187.418ZM165.84 160.962C165.151 161.184 164.462 161.405 163.748 161.602C162.026 156.237 159.909 150.996 157.473 145.902C159.836 140.881 161.829 135.713 163.502 130.422C164.782 130.791 166.013 131.185 167.194 131.579C178.662 135.516 186.709 141.373 186.709 145.852C186.709 150.676 178.12 156.902 165.84 160.962ZM129 157.271C135.226 157.271 140.271 152.226 140.271 146C140.271 139.774 135.226 134.729 129 134.729C122.774 134.729 117.729 139.774 117.729 146C117.729 152.226 122.774 157.271 129 157.271Z" fill="#DF2E31"/>
</g>
<defs>
<linearGradient id="paint0_linear_1781_64" x1="0" y1="0" x2="263.128" y2="286.369" gradientUnits="userSpaceOnUse">
<stop stop-color="#DF2E31"/>
<stop offset="1" stop-color="#800C0C"/>
</linearGradient>
<linearGradient id="paint1_linear_1781_64" x1="60.9763" y1="96.9231" x2="205.701" y2="196.777" gradientUnits="userSpaceOnUse">
<stop stop-color="#DF2E31" stop-opacity="0.4"/>
<stop offset="1" stop-color="#DF2E31" stop-opacity="0.15"/>
</linearGradient>
<clipPath id="clip0_1781_64">
<rect width="257" height="292" fill="white"/>
</clipPath>
</defs>
</svg>
