<svg width="257" height="292" viewBox="0 0 257 292" fill="none" xmlns="http://www.w3.org/2000/svg">
<g clip-path="url(#clip0_1781_41)">
<path d="M131.045 2.87811L254.5 74.7239V210.471L131.044 289.053L2.5 210.442V74.7527L131.045 2.87811Z" stroke="url(#paint0_linear_1781_41)" stroke-width="5"/>
<path d="M26 88.2275L130.55 30L231 88.2275V198.314L130.55 262L26 198.314V88.2275Z" fill="url(#paint1_linear_1781_41)" fill-opacity="0.95"/>
<path d="M129 205.312C96.2939 205.312 69.6875 178.706 69.6875 146C69.6875 113.296 96.2939 86.6875 129 86.6875C161.706 86.6875 188.312 113.296 188.312 146C188.312 178.706 161.706 205.312 129 205.312ZM129 91.25C98.8113 91.25 74.25 115.811 74.25 146C74.25 176.189 98.8113 200.75 129 200.75C159.189 200.75 183.75 176.189 183.75 146C183.75 115.811 159.189 91.25 129 91.25Z" fill="url(#paint2_linear_1781_41)"/>
<path d="M134.411 138.688L147.132 107.174C147.704 105.757 149.38 105.196 150.725 105.924C158.235 110.003 164.46 116.125 168.67 123.555C169.423 124.885 168.895 126.574 167.489 127.169L136.209 140.462C135.688 139.791 135.091 139.192 134.411 138.688ZM123.46 138.795L110.166 107.515C109.569 106.109 107.881 105.579 106.553 106.334C99.1254 110.545 93.0035 116.767 88.9222 124.279C88.1937 125.625 88.7551 127.3 90.1697 127.873L121.686 140.593C122.192 139.909 122.791 139.312 123.46 138.795ZM130.174 136.993L142.901 105.459C143.469 104.051 142.667 102.482 141.202 102.073C137.321 100.979 133.235 100.375 129 100.375C124.469 100.375 120.107 101.068 115.981 102.311C114.533 102.748 113.773 104.336 114.366 105.726L127.659 137.009C128.1 136.946 129.786 136.944 130.174 136.993ZM134.54 153.205L147.834 184.485C148.431 185.891 150.119 186.421 151.447 185.666C158.875 181.455 164.997 175.233 169.078 167.721C169.806 166.375 169.245 164.7 167.83 164.127L136.314 151.407C135.808 152.091 135.209 152.688 134.54 153.205ZM172.689 132.981C172.252 131.533 170.664 130.773 169.274 131.366L137.991 144.659C138.054 145.1 138.125 145.541 138.125 146C138.125 146.401 138.056 146.786 138.007 147.174L169.539 159.901C170.949 160.469 172.518 159.667 172.927 158.202C174.021 154.321 174.625 150.235 174.625 146C174.625 141.469 173.932 137.107 172.689 132.981ZM119.875 146C119.875 145.599 119.944 145.214 119.993 144.826L88.4588 132.099C87.0508 131.531 85.4825 132.333 85.0726 133.798C83.9787 137.679 83.375 141.765 83.375 146C83.375 150.531 84.0678 154.893 85.3109 159.019C85.7476 160.467 87.336 161.227 88.7261 160.634L120.009 147.341C119.946 146.9 119.875 146.459 119.875 146ZM129 155.125C128.599 155.125 128.214 155.056 127.826 155.007L115.099 186.541C114.531 187.949 115.333 189.518 116.798 189.927C120.679 191.021 124.765 191.625 129 191.625C133.531 191.625 137.893 190.932 142.019 189.689C143.467 189.252 144.227 187.664 143.634 186.274L130.341 154.991C129.9 155.054 129.459 155.125 129 155.125ZM121.795 151.54L90.515 164.834C89.1093 165.431 88.5791 167.119 89.3343 168.447C93.5448 175.875 99.767 181.997 107.279 186.078C108.625 186.806 110.3 186.245 110.873 184.83L123.593 153.314C122.909 152.808 122.312 152.209 121.795 151.54Z" fill="url(#paint3_linear_1781_41)"/>
<path d="M59.2992 154.515C58.6821 155.86 59.0453 157.38 60.1302 158.001L103.055 182.603C106.62 184.645 110.315 186.432 114.129 187.956L153.737 203.793C156.039 204.713 158.819 203.334 160.042 200.67C161.26 198.003 160.49 194.998 158.291 193.855L120.434 174.199C116.792 172.308 113.022 170.675 109.148 169.309L62.4827 152.866C61.302 152.452 59.9141 153.167 59.2992 154.515Z" fill="url(#paint4_linear_1781_41)"/>
<path d="M170.274 196.114C167.278 194.871 164.569 194.706 162.372 195.341C161.802 193.851 160.786 192.583 159.34 191.832L121.481 172.174C117.759 170.243 113.864 168.554 109.901 167.16L63.2402 150.716C60.93 149.899 58.3435 151.126 57.223 153.566C56.1046 156.003 56.8665 158.761 58.9963 159.982L101.917 184.583C105.552 186.668 109.375 188.515 113.276 190.077L152.884 205.912C153.644 206.217 154.437 206.36 155.223 206.36C155.798 206.36 156.368 206.266 156.927 206.117C157.553 208.313 159.046 209.969 160.989 211.25C167.552 215.587 184.612 212.613 184.612 212.613C180.05 204.653 176.091 198.843 170.274 196.114ZM154.582 201.677L135.316 193.973L138.822 186.318L157.239 195.882C160.846 197.611 158.498 203.016 154.582 201.677Z" fill="url(#paint5_linear_1781_41)"/>
</g>
<defs>
<linearGradient id="paint0_linear_1781_41" x1="0" y1="0" x2="263.128" y2="286.369" gradientUnits="userSpaceOnUse">
<stop stop-color="#DF2E31"/>
<stop offset="1" stop-color="#800C0C"/>
</linearGradient>
<linearGradient id="paint1_linear_1781_41" x1="60.9763" y1="96.9231" x2="205.701" y2="196.777" gradientUnits="userSpaceOnUse">
<stop stop-color="#DF2E31" stop-opacity="0.4"/>
<stop offset="1" stop-color="#DF2E31" stop-opacity="0.15"/>
</linearGradient>
<linearGradient id="paint2_linear_1781_41" x1="129" y1="86.6875" x2="129" y2="205.312" gradientUnits="userSpaceOnUse">
<stop stop-color="#DF2E31"/>
<stop offset="1" stop-color="#800C0C"/>
</linearGradient>
<linearGradient id="paint3_linear_1781_41" x1="129" y1="100.375" x2="129" y2="191.625" gradientUnits="userSpaceOnUse">
<stop stop-color="#DF2E31"/>
<stop offset="1" stop-color="#800C0C"/>
</linearGradient>
<linearGradient id="paint4_linear_1781_41" x1="109.805" y1="152.76" x2="109.806" y2="204.093" gradientUnits="userSpaceOnUse">
<stop stop-color="#DF2E31"/>
<stop offset="1" stop-color="#E71616"/>
</linearGradient>
<linearGradient id="paint5_linear_1781_41" x1="60.7796" y1="153.821" x2="184.619" y2="213.786" gradientUnits="userSpaceOnUse">
<stop stop-color="#DF2E31"/>
<stop offset="1" stop-color="#800C0C"/>
</linearGradient>
<clipPath id="clip0_1781_41">
<rect width="257" height="292" fill="white"/>
</clipPath>
</defs>
</svg>
