<svg width="257" height="292" viewBox="0 0 257 292" fill="none" xmlns="http://www.w3.org/2000/svg">
<g clip-path="url(#clip0_1781_55)">
<path d="M131.045 2.87811L254.5 74.7239V210.471L131.044 289.053L2.5 210.442V74.7527L131.045 2.87811Z" stroke="url(#paint0_linear_1781_55)" stroke-width="5"/>
<path d="M26 88.2275L130.55 30L231 88.2275V198.314L130.55 262L26 198.314V88.2275Z" fill="url(#paint1_linear_1781_55)" fill-opacity="0.95"/>
<path d="M130.329 174.329C130.26 174.467 130.191 174.578 130.329 174.329V174.329ZM187.551 154.278C182.931 154.277 178.373 155.341 174.229 157.39C172.874 154.647 171.473 152.25 171.243 150.453C170.967 148.355 170.669 147.111 170.99 144.622C171.312 142.133 172.759 138.607 172.736 138.353C172.713 138.1 172.414 136.832 169.451 136.809C166.489 136.786 163.939 137.385 163.643 138.169C163.119 139.601 162.712 141.073 162.425 142.571C161.897 145.267 156.502 154.901 153.447 159.925C152.436 157.966 151.586 156.237 151.403 154.855C151.127 152.757 150.828 151.513 151.15 149.024C151.472 146.535 152.919 143.009 152.896 142.755C152.873 142.501 152.574 141.234 149.613 141.211C146.653 141.188 144.101 141.787 143.802 142.571C143.504 143.354 143.182 145.198 142.585 146.973C141.988 148.747 134.801 164.788 132.92 168.959C131.955 171.08 131.128 172.785 130.531 173.937C130.439 174.122 130.37 174.237 130.324 174.329C130.393 174.214 130.439 174.099 130.439 174.145C129.934 175.136 129.635 175.689 129.635 175.689V175.712C129.245 176.45 128.808 177.118 128.602 177.118C128.464 177.118 128.165 175.182 128.67 172.532C129.75 166.954 132.3 158.289 132.277 157.989C132.254 157.828 132.759 156.33 130.6 155.523C128.51 154.762 127.752 156.03 127.568 156.03C127.384 156.03 127.246 156.491 127.246 156.491C127.246 156.491 129.566 146.719 122.793 146.719C118.566 146.719 112.686 151.375 109.797 155.592C107.982 156.583 104.055 158.726 99.9205 161.008C98.3356 161.884 96.7048 162.783 95.1659 163.635C95.0511 163.52 94.9592 163.405 94.8444 163.29C86.6239 154.486 71.4461 148.263 72.0892 136.44C72.3189 132.13 73.8119 120.814 101.276 107.078C123.785 95.8316 141.781 98.9198 144.88 105.788C149.335 115.583 135.258 133.813 111.883 136.44C102.973 137.431 98.2897 133.974 97.1183 132.684C95.9009 131.324 95.7172 131.255 95.2578 131.508C94.4998 131.923 94.9822 133.121 95.2578 133.836C95.9469 135.657 98.818 138.883 103.708 140.496C108.003 141.902 118.449 142.686 131.08 137.777C145.27 132.292 156.316 117.012 153.077 104.221C149.779 91.2222 128.298 86.9585 107.987 94.1952C95.8849 98.505 82.7973 105.281 73.3824 114.108C62.1989 124.617 60.4096 133.767 61.1446 137.592C63.7608 151.167 82.4068 160.017 89.8693 166.562C89.5018 166.77 89.1573 166.954 88.8357 167.139C85.0941 169.005 70.8788 176.473 67.3209 184.355C63.3014 193.297 67.987 199.704 71.0625 200.58C80.6612 203.253 90.4895 198.436 95.77 190.531C101.051 182.626 100.41 172.301 97.975 167.6C97.952 167.53 97.9061 167.484 97.8831 167.415C98.8478 166.839 99.8355 166.263 100.823 165.687C102.727 164.557 104.588 163.52 106.218 162.621C105.3 165.11 104.634 168.107 104.289 172.439C103.876 177.51 105.966 184.078 108.676 186.659C109.871 187.789 111.315 187.812 112.211 187.812C115.381 187.812 116.805 185.184 118.387 182.05C120.34 178.224 122.062 173.776 122.062 173.776C122.062 173.776 119.903 185.807 125.806 185.807C127.963 185.807 130.122 183.018 131.089 181.589V181.612C131.089 181.612 131.135 181.52 131.25 181.335C131.48 180.99 131.594 180.782 131.594 180.782V180.713C132.467 179.215 134.374 175.781 137.242 170.112C140.963 162.783 144.521 153.633 144.521 153.633C144.865 155.644 145.341 157.631 145.945 159.579C146.588 161.769 147.944 164.166 149.023 166.493C148.15 167.692 147.622 168.383 147.622 168.383C147.624 168.401 147.632 168.417 147.645 168.429C146.956 169.351 146.175 170.342 145.371 171.31C142.433 174.813 138.94 178.823 138.48 179.976C137.929 181.335 138.067 182.35 139.124 183.133C139.904 183.732 141.283 183.825 142.727 183.709C145.369 183.525 147.229 182.88 148.125 182.465C149.776 181.871 151.337 181.048 152.762 180.022C155.633 177.901 157.379 174.859 157.218 170.849C157.126 168.637 156.414 166.424 155.542 164.35C155.794 163.981 156.07 163.589 156.323 163.198C160.868 156.537 164.382 149.227 164.382 149.227C164.726 151.238 165.202 153.224 165.806 155.173C166.358 157.039 167.435 159.091 168.422 161.096C164.153 164.576 161.511 168.609 160.592 171.259C158.893 176.168 160.225 178.381 162.729 178.888C163.854 179.118 165.462 178.588 166.656 178.081C168.43 177.488 170.102 176.626 171.615 175.523C174.486 173.403 177.263 170.43 177.079 166.396C177.01 164.576 176.505 162.755 175.839 161.004C179.445 159.482 184.129 158.653 190.1 159.344C202.889 160.842 205.393 168.862 204.911 172.204C204.428 175.546 201.741 177.413 200.845 177.966C199.949 178.519 199.674 178.727 199.743 179.141C199.858 179.741 200.271 179.718 201.029 179.579C202.085 179.395 207.733 176.86 207.986 170.66C208.354 162.824 200.845 154.205 187.544 154.274L187.551 154.278ZM88.9736 187.627C84.7496 192.26 78.8237 194.011 76.2764 192.536C73.5432 190.941 74.6227 184.124 79.8343 179.187C83.004 176.191 87.0901 173.426 89.8004 171.72C90.4206 171.352 91.3164 170.798 92.4189 170.13C92.6026 170.015 92.6945 169.969 92.6945 169.969C92.9012 169.83 93.1309 169.715 93.3606 169.577C95.2647 176.583 93.4295 182.76 88.9736 187.623V187.627ZM119.834 166.562C118.364 170.181 115.266 179.4 113.382 178.916C111.775 178.501 110.787 171.471 113.061 164.557C114.209 161.077 116.644 156.929 118.091 155.316C120.409 152.711 122.958 151.882 123.555 152.919C124.359 154.278 120.753 164.304 119.834 166.562ZM145.33 178.777C144.71 179.1 144.135 179.307 143.86 179.146C143.653 179.031 144.112 178.593 144.112 178.593C144.112 178.593 147.305 175.159 148.568 173.592C149.303 172.67 150.153 171.587 151.07 170.388C151.07 170.503 151.093 170.619 151.093 170.757C151.063 174.882 147.114 177.671 145.323 178.777H145.33ZM164.986 174.283C164.527 173.96 164.596 172.877 166.135 169.512C166.732 168.199 168.108 165.986 170.499 163.866C170.77 164.669 170.917 165.508 170.935 166.355C170.912 171.541 167.214 173.476 164.989 174.283H164.986Z" fill="#DF2E31"/>
</g>
<defs>
<linearGradient id="paint0_linear_1781_55" x1="0" y1="0" x2="263.128" y2="286.369" gradientUnits="userSpaceOnUse">
<stop stop-color="#DF2E31"/>
<stop offset="1" stop-color="#800C0C"/>
</linearGradient>
<linearGradient id="paint1_linear_1781_55" x1="60.9763" y1="96.9231" x2="205.701" y2="196.777" gradientUnits="userSpaceOnUse">
<stop stop-color="#DF2E31" stop-opacity="0.4"/>
<stop offset="1" stop-color="#DF2E31" stop-opacity="0.15"/>
</linearGradient>
<clipPath id="clip0_1781_55">
<rect width="257" height="292" fill="white"/>
</clipPath>
</defs>
</svg>
