<svg width="257" height="295" viewBox="0 0 257 295" fill="none" xmlns="http://www.w3.org/2000/svg">
<path d="M131.045 2.88335L254.5 75.2599V212.041L131.043 291.204L2.5 212.012V75.2887L131.045 2.88335Z" stroke="url(#paint0_linear_1781_111)" stroke-width="5"/>
<path d="M22.2004 91.5857L128.004 33.3008L229.658 91.5857V201.781L128.004 265.53L22.2004 201.781V91.5857Z" fill="url(#paint1_linear_1781_111)" fill-opacity="0.95"/>
<g clip-path="url(#clip0_1781_111)">
<path d="M183.105 112.43C176.611 112.43 170.607 110.219 165.803 106.503C160.288 102.24 156.307 95.9717 154.906 88.7684C154.55 86.9903 154.372 85.1439 154.35 83.2519H135.781V135.248L135.758 163.719C135.758 171.333 130.91 177.784 124.216 180.064C122.259 180.725 120.169 181.044 117.99 180.907C115.187 180.748 112.585 179.881 110.295 178.491C105.447 175.527 102.178 170.148 102.089 163.97C101.955 154.351 109.539 146.486 118.924 146.486C120.769 146.486 122.549 146.805 124.216 147.352V133.151V128.068C122.46 127.794 120.68 127.657 118.857 127.657C108.582 127.657 98.9752 132.034 92.1034 139.921C86.9217 145.871 83.8082 153.484 83.319 161.463C82.6963 171.926 86.4324 181.887 93.6823 189.227C94.7498 190.299 95.8618 191.302 97.0404 192.236C103.245 197.137 110.851 199.805 118.857 199.805C120.658 199.805 122.46 199.668 124.216 199.394C131.689 198.254 138.583 194.744 144.031 189.227C150.725 182.457 154.417 173.453 154.461 163.879L154.372 121.343C157.553 123.873 161.044 125.948 164.803 127.566C170.629 130.096 176.812 131.35 183.15 131.35V117.536V112.407C183.172 112.43 183.105 112.43 183.105 112.43Z" fill="#DF2E31"/>
</g>
<defs>
<linearGradient id="paint0_linear_1781_111" x1="0" y1="0" x2="265.229" y2="286.54" gradientUnits="userSpaceOnUse">
<stop stop-color="#DF2E31"/>
<stop offset="1" stop-color="#800C0C"/>
</linearGradient>
<linearGradient id="paint1_linear_1781_111" x1="57.5961" y1="100.29" x2="203.02" y2="201.729" gradientUnits="userSpaceOnUse">
<stop stop-color="#DF2E31" stop-opacity="0.4"/>
<stop offset="1" stop-color="#DF2E31" stop-opacity="0.15"/>
</linearGradient>
<clipPath id="clip0_1781_111">
<rect width="99.9023" height="116.553" fill="white" transform="translate(83.252 83.2519)"/>
</clipPath>
</defs>
</svg>
