<svg width="257" height="292" viewBox="0 0 257 292" fill="none" xmlns="http://www.w3.org/2000/svg">
<g clip-path="url(#clip0_1781_81)">
<path d="M131.045 2.87811L254.5 74.7239V210.471L131.044 289.053L2.5 210.442V74.7527L131.045 2.87811Z" stroke="url(#paint0_linear_1781_81)" stroke-width="5"/>
<path d="M26 88.2275L130.55 30L231 88.2275V198.314L130.55 262L26 198.314V88.2275Z" fill="url(#paint1_linear_1781_81)" fill-opacity="0.95"/>
<g clip-path="url(#clip1_1781_81)">
<path d="M74.2589 200L81.9207 172.01C77.1928 163.817 74.7085 154.529 74.7131 145.005C74.7267 115.23 98.9565 91 128.727 91C143.174 91.0045 156.736 96.6317 166.936 106.841C177.132 117.051 182.746 130.622 182.741 145.055C182.728 174.835 158.498 199.064 128.727 199.064C119.689 199.06 110.783 196.794 102.894 192.488L74.2589 200V200ZM104.22 182.71C111.832 187.229 119.099 189.936 128.709 189.94C153.452 189.94 173.608 169.802 173.622 145.046C173.631 120.239 153.57 100.129 128.745 100.12C103.984 100.12 83.8418 120.257 83.8327 145.009C83.8282 155.115 86.7894 162.681 91.7625 170.597L87.2254 187.165L104.22 182.71V182.71ZM155.936 157.894C155.6 157.331 154.701 156.995 153.348 156.318C151.999 155.642 145.363 152.376 144.123 151.926C142.888 151.477 141.989 151.25 141.085 152.603C140.186 153.952 137.597 156.995 136.811 157.894C136.026 158.793 135.235 158.907 133.886 158.23C132.538 157.554 128.187 156.132 123.032 151.531C119.022 147.952 116.31 143.533 115.524 142.18C114.739 140.831 115.443 140.1 116.115 139.428C116.723 138.824 117.464 137.852 118.14 137.062C118.826 136.28 119.049 135.717 119.503 134.813C119.953 133.914 119.73 133.124 119.389 132.447C119.049 131.775 116.351 125.131 115.229 122.428C114.13 119.799 113.017 120.153 112.191 120.112L109.602 120.067C108.703 120.067 107.24 120.403 106.005 121.756C104.77 123.11 101.282 126.371 101.282 133.015C101.282 139.659 106.119 146.077 106.791 146.976C107.468 147.875 116.306 161.509 129.844 167.354C133.064 168.744 135.58 169.575 137.538 170.198C140.772 171.224 143.715 171.079 146.04 170.733C148.633 170.347 154.024 167.468 155.151 164.316C156.277 161.16 156.277 158.457 155.936 157.894V157.894Z" fill="#DF2E31"/>
</g>
</g>
<defs>
<linearGradient id="paint0_linear_1781_81" x1="0" y1="0" x2="263.128" y2="286.369" gradientUnits="userSpaceOnUse">
<stop stop-color="#DF2E31"/>
<stop offset="1" stop-color="#800C0C"/>
</linearGradient>
<linearGradient id="paint1_linear_1781_81" x1="60.9763" y1="96.9231" x2="205.701" y2="196.777" gradientUnits="userSpaceOnUse">
<stop stop-color="#DF2E31" stop-opacity="0.4"/>
<stop offset="1" stop-color="#DF2E31" stop-opacity="0.15"/>
</linearGradient>
<clipPath id="clip0_1781_81">
<rect width="257" height="292" fill="white"/>
</clipPath>
<clipPath id="clip1_1781_81">
<rect width="109" height="109" fill="white" transform="translate(74 91)"/>
</clipPath>
</defs>
</svg>
